<svg width="18" height="16" viewBox="0 0 18 16" fill="none" xmlns="http://www.w3.org/2000/svg">
<path d="M18 8C18 8.23575 17.921 8.46184 17.7803 8.62854C17.6397 8.79524 17.4489 8.88889 17.25 8.88889H0.75C0.551088 8.88889 0.360322 8.79524 0.21967 8.62854C0.0790178 8.46184 0 8.23575 0 8C0 7.76425 0.0790178 7.53816 0.21967 7.37146C0.360322 7.20476 0.551088 7.11111 0.75 7.11111H17.25C17.4489 7.11111 17.6397 7.20476 17.7803 7.37146C17.921 7.53816 18 7.76425 18 8ZM0.75 1.77778H17.25C17.4489 1.77778 17.6397 1.68413 17.7803 1.51743C17.921 1.35073 18 1.12464 18 0.888889C18 0.653141 17.921 0.427049 17.7803 0.26035C17.6397 0.0936507 17.4489 0 17.25 0H0.75C0.551088 0 0.360322 0.0936507 0.21967 0.26035C0.0790178 0.427049 0 0.653141 0 0.888889C0 1.12464 0.0790178 1.35073 0.21967 1.51743C0.360322 1.68413 0.551088 1.77778 0.75 1.77778ZM17.25 14.2222H0.75C0.551088 14.2222 0.360322 14.3159 0.21967 14.4826C0.0790178 14.6493 0 14.8754 0 15.1111C0 15.3469 0.0790178 15.573 0.21967 15.7397C0.360322 15.9064 0.551088 16 0.75 16H17.25C17.4489 16 17.6397 15.9064 17.7803 15.7397C17.921 15.573 18 15.3469 18 15.1111C18 14.8754 17.921 14.6493 17.7803 14.4826C17.6397 14.3159 17.4489 14.2222 17.25 14.2222Z" fill="white"/>
</svg>
