<svg width="68" height="52" viewBox="0 0 68 52" fill="none" xmlns="http://www.w3.org/2000/svg">
<path d="M65.0929 30.8214C64.3536 30.2516 63.5061 29.8383 62.6019 29.6065C61.6977 29.3748 60.7558 29.3295 59.8336 29.4734C65.141 24.1151 67.8257 18.788 67.8257 13.5654C67.8257 6.0848 61.809 0.000265167 54.4132 0.000265167C52.4508 -0.0120584 50.5095 0.405311 48.7255 1.22307C46.9416 2.04083 45.3583 3.23916 44.0867 4.73394C42.8152 3.23916 41.2319 2.04083 39.4479 1.22307C37.664 0.405311 35.7227 -0.0120584 33.7603 0.000265167C26.3644 0.000265167 20.3477 6.0848 20.3477 13.5654C20.3477 16.6741 21.2634 19.6952 23.1908 22.8915C21.6122 23.2914 20.1716 24.1118 19.0223 25.2654L12.6297 31.6523H4.52172C3.32248 31.6523 2.17237 32.1287 1.32438 32.9767C0.476394 33.8246 0 34.9748 0 36.174L0 47.4783C0 48.6775 0.476394 49.8276 1.32438 50.6756C2.17237 51.5236 3.32248 52 4.52172 52H33.9129C34.0977 52.0001 34.2819 51.9773 34.4611 51.9322L52.548 47.4105C52.6633 47.383 52.7758 47.3452 52.8843 47.2974L63.8692 42.6231L63.9936 42.5666C65.0493 42.039 65.9534 41.2514 66.6206 40.2779C67.2878 39.3044 67.6962 38.1771 67.8073 37.0021C67.9184 35.8271 67.7286 34.6432 67.2557 33.5619C66.7828 32.4806 66.0424 31.5375 65.1042 30.8214H65.0929ZM33.7603 4.52198C35.5113 4.49635 37.2303 4.99358 38.6972 5.95008C40.1642 6.90659 41.3126 8.27889 41.9954 9.89152C42.1658 10.3062 42.4555 10.6609 42.8279 10.9105C43.2003 11.1601 43.6384 11.2933 44.0867 11.2933C44.535 11.2933 44.9732 11.1601 45.3456 10.9105C45.7179 10.6609 46.0077 10.3062 46.178 9.89152C46.8609 8.27889 48.0093 6.90659 49.4762 5.95008C50.9432 4.99358 52.6621 4.49635 54.4132 4.52198C59.2317 4.52198 63.304 8.66218 63.304 13.5654C63.304 19.0791 58.8417 25.3162 50.4002 31.624L47.2661 32.3447C47.5412 31.1826 47.5497 29.9733 47.2909 28.8074C47.0322 27.6416 46.5129 26.5494 45.772 25.6128C45.0312 24.6761 44.0879 23.9193 43.0129 23.3991C41.938 22.8789 40.7592 22.6087 39.565 22.6088H28.4529C26.014 19.3193 24.8694 16.4254 24.8694 13.5654C24.8694 8.66218 28.9418 4.52198 33.7603 4.52198ZM4.52172 36.174H11.3043V47.4783H4.52172V36.174ZM62.0125 38.4942L51.2734 43.0668L33.6303 47.4783H15.826V34.8486L22.2214 28.456C22.6398 28.0343 23.1378 27.6999 23.6865 27.4724C24.2352 27.2449 24.8237 27.1287 25.4177 27.1306H39.565C40.4644 27.1306 41.327 27.4879 41.963 28.1238C42.599 28.7598 42.9563 29.6224 42.9563 30.5218C42.9563 31.4213 42.599 32.2839 41.963 32.9198C41.327 33.5558 40.4644 33.9131 39.565 33.9131H31.652C31.0524 33.9131 30.4773 34.1513 30.0533 34.5753C29.6294 34.9993 29.3912 35.5744 29.3912 36.174C29.3912 36.7736 29.6294 37.3487 30.0533 37.7727C30.4773 38.1967 31.0524 38.4348 31.652 38.4348H40.6954C40.8656 38.4344 41.0352 38.4154 41.2013 38.3783L60.136 34.0234L60.2236 34.0007C60.8016 33.8403 61.4186 33.8992 61.9557 34.1663C62.4929 34.4334 62.9123 34.8896 63.1333 35.4473C63.3542 36.005 63.3611 36.6247 63.1527 37.1872C62.9442 37.7497 62.5351 38.2152 62.004 38.4942H62.0125Z" fill="white"/>
</svg>
