<svg width="61" height="52" viewBox="0 0 61 52" fill="none" xmlns="http://www.w3.org/2000/svg">
<path d="M43.8853 0C38.2913 0 33.3935 2.40557 30.3405 6.47173C27.2875 2.40557 22.3897 0 16.7956 0C12.3427 0.00501901 8.07357 1.77617 4.92487 4.92487C1.77617 8.07357 0.00501901 12.3427 0 16.7956C0 35.7584 28.1164 51.1075 29.3138 51.7414C29.6294 51.9111 29.9821 52 30.3405 52C30.6988 52 31.0516 51.9111 31.3672 51.7414C32.5646 51.1075 60.681 35.7584 60.681 16.7956C60.676 12.3427 58.9048 8.07357 55.7561 4.92487C52.6074 1.77617 48.3383 0.00501901 43.8853 0ZM30.3405 47.3528C25.3939 44.4705 4.33436 31.3401 4.33436 16.7956C4.33866 13.492 5.65292 10.3249 7.98893 7.98893C10.3249 5.65292 13.492 4.33866 16.7956 4.33436C22.0646 4.33436 26.4883 7.14085 28.3358 11.6486C28.4991 12.0461 28.7769 12.386 29.1338 12.6253C29.4908 12.8646 29.9108 12.9923 30.3405 12.9923C30.7702 12.9923 31.1902 12.8646 31.5472 12.6253C31.9041 12.386 32.1819 12.0461 32.3451 11.6486C34.1926 7.13272 38.6164 4.33436 43.8853 4.33436C47.189 4.33866 50.356 5.65292 52.6921 7.98893C55.0281 10.3249 56.3423 13.492 56.3466 16.7956C56.3466 31.3184 35.2817 44.4678 30.3405 47.3528Z" fill="white"/>
</svg>
