<svg width="47" height="52" viewBox="0 0 47 52" fill="none" xmlns="http://www.w3.org/2000/svg">
<path d="M39.1192 36.0929C41.4678 34.1201 43.344 31.6456 44.6096 28.8516C45.8752 26.0577 46.4979 23.0154 46.432 19.9489C46.1999 9.33722 37.7008 0.587364 27.1076 0.0301962C24.3744 -0.118571 21.6392 0.283437 19.0644 1.21235C16.4896 2.14126 14.1277 3.57812 12.119 5.43761C10.1103 7.2971 8.49577 9.54129 7.37129 12.0369C6.24681 14.5325 5.6353 17.2286 5.5731 19.9652L0.361258 29.9896C0.340364 30.0313 0.319471 30.0731 0.300899 30.1149C-0.0727522 30.9858 -0.0993831 31.9666 0.226458 32.8566C0.5523 33.7465 1.20597 34.4782 2.05365 34.9019L2.11169 34.9275L7.43032 37.3627V44.5734C7.43032 45.5586 7.82166 46.5033 8.51826 47.1999C9.21485 47.8965 10.1596 48.2879 11.1448 48.2879H22.2881C22.7807 48.2879 23.2531 48.0922 23.6014 47.7439C23.9497 47.3956 24.1453 46.9232 24.1453 46.4306C24.1453 45.9381 23.9497 45.4657 23.6014 45.1174C23.2531 44.7691 22.7807 44.5734 22.2881 44.5734H11.1448V36.1718C11.145 35.8158 11.043 35.4672 10.8508 35.1676C10.6586 34.868 10.3843 34.6299 10.0606 34.4817L3.71587 31.5728L9.07164 21.2792C9.21124 21.0176 9.28533 20.726 9.28755 20.4295C9.28701 16.6415 10.5731 12.9657 12.9351 10.0044C15.2971 7.04304 18.5949 4.97179 22.2881 4.13002V7.74929C21.049 8.1874 20.0046 9.04947 19.3395 10.1831C18.6745 11.3168 18.4317 12.6491 18.6539 13.9445C18.8762 15.2399 19.5492 16.415 20.5541 17.2622C21.559 18.1093 22.831 18.574 24.1453 18.574C25.4597 18.574 26.7317 18.1093 27.7366 17.2622C28.7415 16.415 29.4145 15.2399 29.6368 13.9445C29.859 12.6491 29.6162 11.3168 28.9512 10.1831C28.2861 9.04947 27.2417 8.1874 26.0026 7.74929V3.71447C26.3044 3.71447 26.6062 3.71447 26.908 3.73768C30.2015 3.92634 33.3663 5.08187 36.0065 7.05976C38.6467 9.03765 40.6451 11.7501 41.7518 14.8578H37.1459C36.8735 14.8577 36.6043 14.9176 36.3576 15.0331C36.1109 15.1487 35.8926 15.3171 35.7182 15.5264L29.796 22.6349C28.5608 22.1747 27.2027 22.1661 25.9619 22.6106C24.721 23.0552 23.6773 23.9242 23.0154 25.0641C22.3535 26.2039 22.116 27.5411 22.345 28.8392C22.5739 30.1372 23.2545 31.3125 24.2664 32.1571C25.2783 33.0018 26.5563 33.4613 27.8744 33.4545C29.1925 33.4478 30.4657 32.9751 31.4688 32.1201C32.472 31.2651 33.1405 30.0829 33.3561 28.7825C33.5716 27.4822 33.3204 26.1475 32.6468 25.0145L38.0165 18.5723H42.6108C42.6665 19.0551 42.7006 19.5427 42.713 20.0348C42.7709 22.6949 42.1952 25.3307 41.0334 27.7244C39.8717 30.1181 38.1572 32.2011 36.0316 33.8015C35.7697 33.9979 35.5643 34.26 35.4363 34.5612C35.3083 34.8625 35.2622 35.1923 35.3026 35.5171L37.1599 50.3749C37.2164 50.8235 37.4345 51.236 37.7734 51.5351C38.1124 51.8343 38.5488 51.9996 39.0008 52C39.0784 52 39.1559 51.9953 39.233 51.9861C39.4751 51.9559 39.7088 51.8784 39.921 51.7579C40.1331 51.6374 40.3194 51.4763 40.4692 51.2838C40.619 51.0912 40.7295 50.8711 40.7942 50.6359C40.8589 50.4007 40.8767 50.155 40.8464 49.9129L39.1192 36.0929ZM24.1453 14.8578C23.778 14.8578 23.4189 14.7489 23.1135 14.5448C22.8081 14.3407 22.5701 14.0507 22.4295 13.7113C22.2889 13.372 22.2521 12.9985 22.3238 12.6383C22.3955 12.278 22.5724 11.9471 22.8321 11.6873C23.0918 11.4276 23.4228 11.2507 23.783 11.1791C24.1433 11.1074 24.5167 11.1442 24.8561 11.2847C25.1954 11.4253 25.4855 11.6634 25.6896 11.9688C25.8937 12.2742 26.0026 12.6333 26.0026 13.0006C26.0026 13.4932 25.8069 13.9656 25.4586 14.3138C25.1103 14.6621 24.6379 14.8578 24.1453 14.8578ZM27.8598 29.7156C27.4925 29.7156 27.1334 29.6067 26.828 29.4026C26.5226 29.1985 26.2845 28.9085 26.1439 28.5691C26.0034 28.2298 25.9666 27.8563 26.0383 27.4961C26.1099 27.1358 26.2868 26.8049 26.5465 26.5451C26.8063 26.2854 27.1372 26.1085 27.4975 26.0369C27.8577 25.9652 28.2312 26.002 28.5705 26.1425C28.9099 26.2831 29.2 26.5212 29.404 26.8266C29.6081 27.132 29.717 27.4911 29.717 27.8584C29.717 28.351 29.5214 28.8234 29.1731 29.1716C28.8248 29.5199 28.3524 29.7156 27.8598 29.7156Z" fill="white"/>
</svg>
