<svg width="71" height="52" viewBox="0 0 71 52" fill="none" xmlns="http://www.w3.org/2000/svg">
<path d="M69.8521 30.2034C69.6042 30.3893 69.3221 30.5246 69.0219 30.6015C68.7217 30.6784 68.4093 30.6955 68.1025 30.6517C67.7957 30.6078 67.5006 30.504 67.2339 30.3461C66.9673 30.1882 66.7343 29.9794 66.5484 29.7314C65.126 27.8196 63.2746 26.2683 61.1433 25.2027C59.0119 24.137 56.6601 23.5866 54.2772 23.5959C53.8132 23.5958 53.3594 23.4589 52.9727 23.2024C52.5861 22.9458 52.2836 22.5809 52.1032 22.1534C51.9807 21.8631 51.9176 21.5511 51.9176 21.236C51.9176 20.9209 51.9807 20.609 52.1032 20.3186C52.2836 19.8911 52.5861 19.5262 52.9727 19.2696C53.3594 19.0131 53.8132 18.8762 54.2772 18.8762C55.6013 18.8761 56.8988 18.5046 58.0224 17.804C59.1459 17.1035 60.0505 16.1018 60.6333 14.9129C61.2162 13.724 61.4539 12.3955 61.3196 11.0783C61.1852 9.76102 60.6841 8.50785 59.8732 7.4611C59.0624 6.41436 57.9742 5.616 56.7323 5.1567C55.4905 4.6974 54.1447 4.59558 52.8478 4.8628C51.551 5.13002 50.3551 5.75557 49.396 6.6684C48.4368 7.58122 47.7529 8.74473 47.4219 10.0268C47.3444 10.327 47.2085 10.609 47.0221 10.8567C46.8356 11.1044 46.6022 11.313 46.3351 11.4705C46.0681 11.628 45.7726 11.7313 45.4656 11.7747C45.1586 11.818 44.846 11.8004 44.5458 11.7229C44.2456 11.6454 43.9636 11.5096 43.7159 11.3231C43.4682 11.1367 43.2596 10.9032 43.1021 10.6362C42.9446 10.3691 42.8412 10.0736 42.7979 9.76661C42.7546 9.4596 42.7722 9.14707 42.8497 8.84685C43.3091 7.06905 44.1772 5.42301 45.3847 4.03972C46.5923 2.65642 48.106 1.57404 49.8054 0.878707C51.5049 0.183373 53.3432 -0.105724 55.1741 0.0344163C57.0049 0.174557 58.7778 0.740069 60.3516 1.68595C61.9255 2.63184 63.2568 3.93199 64.2398 5.48295C65.2227 7.03392 65.8301 8.79289 66.0137 10.6199C66.1972 12.4469 65.9518 14.2916 65.2969 16.007C64.6421 17.7225 63.5959 19.2615 62.2417 20.5015C65.4505 21.8909 68.2399 24.0956 70.333 26.8967C70.5189 27.1452 70.654 27.428 70.7304 27.7288C70.8069 28.0297 70.8233 28.3426 70.7786 28.6498C70.7339 28.957 70.6291 29.2523 70.4701 29.5189C70.3112 29.7855 70.1012 30.0181 69.8521 30.2034ZM53.9586 48.3742C54.1294 48.6428 54.244 48.9431 54.2957 49.2572C54.3473 49.5712 54.3349 49.8925 54.2592 50.2016C54.1835 50.5107 54.046 50.8013 53.8551 51.056C53.6641 51.3106 53.4236 51.524 53.1481 51.6832C52.8725 51.8425 52.5676 51.9444 52.2517 51.9828C51.9357 52.0212 51.6153 51.9952 51.3096 51.9066C51.0039 51.8179 50.7194 51.6683 50.473 51.4668C50.2267 51.2653 50.0236 51.016 49.8761 50.734C48.3895 48.2169 46.2724 46.1308 43.7335 44.6816C41.1946 43.2324 38.3218 42.4703 35.3985 42.4703C32.4751 42.4703 29.6023 43.2324 27.0635 44.6816C24.5246 46.1308 22.4074 48.2169 20.9209 50.734C20.7733 51.016 20.5703 51.2653 20.3239 51.4668C20.0776 51.6683 19.793 51.8179 19.4874 51.9066C19.1817 51.9952 18.8612 52.0212 18.5453 51.9828C18.2294 51.9444 17.9244 51.8425 17.6489 51.6832C17.3733 51.524 17.1329 51.3106 16.9419 51.056C16.751 50.8013 16.6135 50.5107 16.5378 50.2016C16.4621 49.8925 16.4496 49.5712 16.5013 49.2572C16.553 48.9431 16.6676 48.6428 16.8383 48.3742C19.1262 44.4432 22.6146 41.3497 26.791 39.5484C24.4409 37.7491 22.7138 35.2586 21.8524 32.427C20.991 29.5955 21.0386 26.5651 21.9884 23.7619C22.9383 20.9588 24.7428 18.5238 27.1481 16.7991C29.5534 15.0745 32.4388 14.147 35.3985 14.147C38.3582 14.147 41.2435 15.0745 43.6489 16.7991C46.0542 18.5238 47.8586 20.9588 48.8085 23.7619C49.7584 26.5651 49.806 29.5955 48.9446 32.427C48.0831 35.2586 46.356 37.7491 44.006 39.5484C48.1823 41.3497 51.6708 44.4432 53.9586 48.3742ZM35.3985 37.7549C37.2654 37.7549 39.0904 37.2013 40.6427 36.1641C42.195 35.1269 43.4049 33.6526 44.1193 31.9278C44.8338 30.203 45.0207 28.3051 44.6565 26.474C44.2922 24.6429 43.3932 22.961 42.0731 21.6409C40.753 20.3208 39.0711 19.4218 37.24 19.0575C35.409 18.6933 33.511 18.8803 31.7862 19.5947C30.0614 20.3091 28.5872 21.519 27.5499 23.0713C26.5127 24.6236 25.9591 26.4486 25.9591 28.3155C25.9591 30.819 26.9536 33.2199 28.7239 34.9902C30.4941 36.7604 32.895 37.7549 35.3985 37.7549ZM18.8796 21.236C18.8796 20.6101 18.631 20.0099 18.1884 19.5674C17.7459 19.1248 17.1456 18.8762 16.5198 18.8762C15.1957 18.8761 13.8982 18.5046 12.7746 17.804C11.6511 17.1035 10.7465 16.1018 10.1636 14.9129C9.5808 13.724 9.34305 12.3955 9.47741 11.0783C9.61177 9.76102 10.1129 8.50785 10.9237 7.4611C11.7346 6.41436 12.8228 5.616 14.0647 5.1567C15.3065 4.6974 16.6523 4.59558 17.9491 4.8628C19.246 5.13002 20.4419 5.75557 21.401 6.6684C22.3602 7.58122 23.0441 8.74473 23.3751 10.0268C23.5316 10.6331 23.9225 11.1524 24.4618 11.4705C25.0012 11.7886 25.6448 11.8794 26.2512 11.7229C26.8575 11.5664 27.3768 11.1755 27.6949 10.6362C28.013 10.0968 28.1038 9.45316 27.9473 8.84685C27.4878 7.06905 26.6198 5.42301 25.4123 4.03972C24.2047 2.65642 22.691 1.57404 20.9915 0.878707C19.2921 0.183373 17.4538 -0.105724 15.6229 0.0344163C13.792 0.174557 12.0192 0.740069 10.4453 1.68595C8.87148 2.63184 7.54012 3.93199 6.55718 5.48295C5.57423 7.03392 4.96684 8.79289 4.78331 10.6199C4.59979 12.4469 4.84521 14.2916 5.50004 16.007C6.15487 17.7225 7.20104 19.2615 8.55531 20.5015C5.34972 21.8922 2.56343 24.0968 0.472863 26.8967C0.0969508 27.3974 -0.064665 28.0269 0.0235695 28.6467C0.111804 29.2666 0.442661 29.826 0.943356 30.2019C1.44405 30.5778 2.07357 30.7395 2.69342 30.6512C3.31328 30.563 3.87269 30.2321 4.24861 29.7314C5.67096 27.8196 7.52233 26.2683 9.65369 25.2027C11.7851 24.137 14.1369 23.5866 16.5198 23.5959C17.1456 23.5959 17.7459 23.3472 18.1884 22.9047C18.631 22.4621 18.8796 21.8619 18.8796 21.236Z" fill="white"/>
</svg>
