<svg width="59" height="52" viewBox="0 0 59 52" fill="none" xmlns="http://www.w3.org/2000/svg">
<path d="M58.2382 2.08C58.2382 1.52835 58.0191 0.999293 57.629 0.609218C57.2389 0.219142 56.7099 0 56.1582 0C44.6974 0 32.9376 12.9246 26.4064 21.4838C24.0739 20.7694 21.6063 20.6121 19.2019 21.0243C16.7975 21.4366 14.5233 22.407 12.562 23.8576C10.6006 25.3081 9.00682 27.1985 7.90855 29.3768C6.81029 31.555 6.23819 33.9605 6.23819 36.4C6.23819 44.4288 1.15779 48.0298 0.915994 48.1962C0.547024 48.4453 0.267733 48.8063 0.119189 49.226C-0.029355 49.6457 -0.0393134 50.102 0.0907783 50.5278C0.22087 50.9536 0.484147 51.3264 0.841895 51.5914C1.19964 51.8564 1.63298 51.9996 2.07819 52H21.8382C24.2777 52 26.6832 51.4279 28.8614 50.3296C31.0397 49.2314 32.93 47.6376 34.3806 45.6762C35.8312 43.7149 36.8016 41.4407 37.2139 39.0363C37.6261 36.6319 37.4688 34.1643 36.7544 31.8318C45.3162 25.3006 58.2382 13.5408 58.2382 2.08ZM21.8382 47.84H6.92199C8.677 45.3466 10.3982 41.5792 10.3982 36.4C10.3982 34.1374 11.0691 31.9256 12.3262 30.0443C13.5832 28.163 15.3699 26.6967 17.4603 25.8308C19.5507 24.965 21.8509 24.7384 24.07 25.1798C26.2892 25.6212 28.3276 26.7108 29.9275 28.3107C31.5274 29.9106 32.617 31.949 33.0584 34.1682C33.4998 36.3873 33.2732 38.6875 32.4074 40.7779C31.5415 42.8683 30.0752 44.655 28.1939 45.912C26.3126 47.1691 24.1008 47.84 21.8382 47.84ZM30.2674 23.283C31.1583 22.1286 32.0328 21.0409 32.8908 20.02C34.9909 21.4388 36.7994 23.2473 38.2182 25.3474C37.1955 26.2037 36.1079 27.0781 34.9552 27.9708C33.7431 26.0931 32.1451 24.4951 30.2674 23.283ZM41.3694 22.5862C39.7991 20.3705 37.8651 18.4365 35.6494 16.8662C43.9122 7.8884 50.1444 5.1662 53.8234 4.4096C53.0824 8.0912 50.3472 14.3234 41.3694 22.5862Z" fill="white"/>
</svg>
