<svg width="76" height="52" viewBox="0 0 76 52" fill="none" xmlns="http://www.w3.org/2000/svg">
<path d="M75.1392 17.7002L67.5984 2.61278C67.3206 2.05746 66.9362 1.56231 66.467 1.15559C65.9978 0.748878 65.4531 0.438565 64.864 0.242377C64.2749 0.046189 63.6529 -0.0320311 63.0336 0.0121837C62.4142 0.0563985 61.8096 0.222183 61.2544 0.500068L53.9057 4.17294L38.4253 0.0775253C38.0281 -0.0258418 37.611 -0.0258418 37.2138 0.0775253L21.7334 4.17294L14.3847 0.500068C13.8294 0.222183 13.2248 0.0563985 12.6055 0.0121837C11.9862 -0.0320311 11.3642 0.046189 10.7751 0.242377C10.1859 0.438565 9.64125 0.748878 9.17207 1.15559C8.7029 1.56231 8.31843 2.05746 8.04064 2.61278L0.499885 17.6972C0.222 18.2525 0.0562167 18.8571 0.0120019 19.4764C-0.0322129 20.0958 0.0460071 20.7178 0.242195 21.3069C0.438383 21.896 0.748696 22.4407 1.15541 22.9099C1.56213 23.379 2.05728 23.7635 2.6126 24.0413L10.5907 28.0333L26.9871 39.7433C27.2287 39.9152 27.5003 40.0405 27.7878 40.1127L46.6988 44.8404C47.0949 44.9397 47.5099 44.9348 47.9034 44.826C48.297 44.7173 48.6556 44.5085 48.9445 44.2199L65.2168 27.9446L73.0235 24.0413C74.1442 23.4802 74.9963 22.4972 75.3925 21.3081C75.7887 20.119 75.6965 18.8213 75.1362 17.7002H75.1392ZM58.9201 27.5605L48.7524 19.417C48.2969 19.0522 47.7226 18.8688 47.14 18.9021C46.5574 18.9353 46.0077 19.1829 45.5967 19.5972C40.3341 24.8982 34.4687 24.2274 30.7279 21.8636L43.5046 9.45324H52.904L60.9441 25.5305L58.9201 27.5605ZM12.269 4.72549L18.3176 7.74534L10.762 22.8298L4.72531 19.8129L12.269 4.72549ZM46.5452 39.9265L29.3746 35.6361L14.8368 25.2528L23.1103 8.70566L37.8195 4.80823L40.7153 5.57353L27.4185 18.4803L27.3949 18.5069C26.8943 19.0074 26.5126 19.6139 26.2778 20.2817C26.043 20.9495 25.9611 21.6615 26.0383 22.3651C26.1154 23.0688 26.3496 23.7461 26.7235 24.3472C27.0974 24.9482 27.6015 25.4576 28.1986 25.8378C34.2737 29.7175 41.6047 29.0882 47.3784 24.3604L55.5486 30.9231L46.5452 39.9265ZM64.8652 22.8268L57.3244 7.75716L63.37 4.72549L70.9137 19.8129L64.8652 22.8268ZM38.9365 50.2094C38.8088 50.7203 38.5141 51.1739 38.0992 51.4983C37.6844 51.8227 37.1731 51.9993 36.6465 52C36.4522 51.9997 36.2588 51.9759 36.0703 51.9291L23.7574 48.8501C23.4695 48.7791 23.1977 48.6537 22.9567 48.4808L15.1707 42.9198C14.6919 42.5439 14.3766 41.9978 14.2904 41.3953C14.2042 40.7927 14.3538 40.1802 14.7079 39.6851C15.0621 39.1901 15.5935 38.8507 16.1916 38.7377C16.7897 38.6247 17.4083 38.7468 17.9187 39.0785L25.3383 44.3795L37.2286 47.3461C37.8366 47.4982 38.3594 47.8856 38.6819 48.4231C39.0044 48.9606 39.1002 49.6042 38.9483 50.2123L38.9365 50.2094Z" fill="white"/>
</svg>
