<svg width="15" height="18" viewBox="0 0 15 18" fill="none" xmlns="http://www.w3.org/2000/svg">
<path d="M7.0715 3.85718C6.43577 3.85718 5.81431 4.0457 5.28572 4.39889C4.75713 4.75209 4.34514 5.25409 4.10186 5.84143C3.85857 6.42877 3.79492 7.07506 3.91894 7.69858C4.04297 8.3221 4.3491 8.89484 4.79863 9.34437C5.24816 9.7939 5.8209 10.1 6.44442 10.2241C7.06793 10.3481 7.71423 10.2844 8.30157 10.0411C8.88891 9.79786 9.39091 9.38587 9.74411 8.85728C10.0973 8.32869 10.2858 7.70723 10.2858 7.0715C10.2858 6.21901 9.94717 5.40143 9.34437 4.79863C8.74156 4.19583 7.92399 3.85718 7.0715 3.85718ZM7.0715 9.00009C6.69006 9.00009 6.31719 8.88698 6.00003 8.67506C5.68288 8.46315 5.43568 8.16194 5.28971 7.80954C5.14374 7.45714 5.10555 7.06936 5.17997 6.69525C5.25438 6.32114 5.43806 5.9775 5.70778 5.70778C5.9775 5.43806 6.32114 5.25438 6.69525 5.17997C7.06936 5.10555 7.45714 5.14374 7.80954 5.28971C8.16194 5.43568 8.46315 5.68288 8.67506 6.00003C8.88698 6.31719 9.00009 6.69006 9.00009 7.0715C9.00009 7.58299 8.7969 8.07354 8.43522 8.43522C8.07354 8.7969 7.58299 9.00009 7.0715 9.00009ZM7.0715 0C5.19667 0.00212686 3.39925 0.747841 2.07354 2.07354C0.74784 3.39925 0.00212686 5.19667 0 7.0715C0 9.59474 1.16599 12.2691 3.37503 14.806C4.36763 15.9523 5.48479 16.9846 6.70587 17.8837C6.81396 17.9594 6.94274 18 7.07471 18C7.20669 18 7.33547 17.9594 7.44356 17.8837C8.66238 16.9842 9.77738 15.9519 10.768 14.806C12.9738 12.2691 14.143 9.59474 14.143 7.0715C14.1409 5.19667 13.3952 3.39925 12.0695 2.07354C10.7438 0.747841 8.94632 0.00212686 7.0715 0ZM7.0715 16.5537C5.74318 15.5091 1.28573 11.672 1.28573 7.0715C1.28573 5.53702 1.8953 4.06538 2.98034 2.98034C4.06538 1.8953 5.53702 1.28573 7.0715 1.28573C8.60598 1.28573 10.0776 1.8953 11.1627 2.98034C12.2477 4.06538 12.8573 5.53702 12.8573 7.0715C12.8573 11.6704 8.39982 15.5091 7.0715 16.5537Z" fill="white"/>
</svg>
