<svg width="18" height="18" viewBox="0 0 18 18" fill="none" xmlns="http://www.w3.org/2000/svg">
<path d="M17.1335 12.1013L12.8935 10.2014L12.8818 10.196C12.6617 10.1019 12.4216 10.0641 12.1832 10.0861C11.9448 10.1081 11.7157 10.1892 11.5165 10.322C11.4931 10.3375 11.4705 10.3543 11.449 10.3724L9.2584 12.2399C7.87058 11.5658 6.43777 10.1438 5.76366 8.774L7.63388 6.55008C7.65188 6.52758 7.66898 6.50508 7.68518 6.48078C7.81517 6.28215 7.89403 6.05447 7.91476 5.81799C7.93549 5.58151 7.89743 5.34358 7.80398 5.12537V5.11457L5.89867 0.867426C5.77513 0.582362 5.56271 0.344895 5.29313 0.190474C5.02354 0.0360539 4.71124 -0.0270376 4.40285 0.010618C3.18331 0.171096 2.06389 0.770017 1.25366 1.69552C0.443431 2.62102 -0.00219686 3.80982 8.14386e-06 5.03987C8.14386e-06 12.1859 5.81406 18 12.9601 18C14.1902 18.0022 15.379 17.5566 16.3045 16.7463C17.23 15.9361 17.8289 14.8167 17.9894 13.5971C18.0271 13.2889 17.9641 12.9766 17.8099 12.7071C17.6556 12.4375 17.4184 12.225 17.1335 12.1013ZM12.9601 16.56C9.90583 16.5566 6.97759 15.3418 4.81787 13.1821C2.65815 11.0224 1.44336 8.09417 1.44002 5.03987C1.43664 4.161 1.75327 3.31095 2.33079 2.64846C2.90832 1.98597 3.70724 1.55635 4.57835 1.43983C4.578 1.44342 4.578 1.44704 4.57835 1.45063L6.46837 5.68067L4.60805 7.90729C4.58917 7.92902 4.57202 7.95219 4.55675 7.97659C4.42131 8.18442 4.34186 8.42371 4.32609 8.67128C4.31032 8.91884 4.35878 9.16628 4.46675 9.38961C5.28216 11.0573 6.96248 12.725 8.64819 13.5395C8.87316 13.6465 9.12203 13.6933 9.37049 13.6753C9.61894 13.6573 9.85848 13.5752 10.0657 13.4369C10.0888 13.4214 10.111 13.4046 10.1323 13.3865L12.3202 11.5199L16.5503 13.4144C16.5503 13.4144 16.5575 13.4144 16.5602 13.4144C16.4451 14.2868 16.0161 15.0873 15.3535 15.6663C14.6909 16.2452 13.84 16.5629 12.9601 16.56Z" fill="#DDDDDD"/>
</svg>
