<svg width="65" height="52" viewBox="0 0 65 52" fill="none" xmlns="http://www.w3.org/2000/svg">
<path d="M4.33345 21.6659H10.8336V38.9997H6.50017C5.92552 38.9997 5.3744 39.2279 4.96806 39.6343C4.56172 40.0406 4.33345 40.5917 4.33345 41.1664C4.33345 41.741 4.56172 42.2922 4.96806 42.6985C5.3744 43.1048 5.92552 43.3331 6.50017 43.3331H58.5015C59.0762 43.3331 59.6273 43.1048 60.0336 42.6985C60.44 42.2922 60.6682 41.741 60.6682 41.1664C60.6682 40.5917 60.44 40.0406 60.0336 39.6343C59.6273 39.2279 59.0762 38.9997 58.5015 38.9997H54.1681V21.6659H60.6682C61.1397 21.6654 61.5981 21.5112 61.9739 21.2266C62.3498 20.942 62.6226 20.5426 62.7509 20.089C62.8793 19.6354 62.8562 19.1523 62.6851 18.713C62.514 18.2737 62.2044 17.9021 61.8031 17.6547L33.6357 0.320952C33.2943 0.1111 32.9015 0 32.5008 0C32.1002 0 31.7073 0.1111 31.366 0.320952L3.19862 17.6547C2.79731 17.9021 2.48764 18.2737 2.31658 18.713C2.14552 19.1523 2.1224 19.6354 2.25074 20.089C2.37908 20.5426 2.65187 20.942 3.02773 21.2266C3.40359 21.5112 3.86201 21.6654 4.33345 21.6659ZM15.1671 21.6659H23.8339V38.9997H15.1671V21.6659ZM36.8343 21.6659V38.9997H28.1674V21.6659H36.8343ZM49.8346 38.9997H41.1677V21.6659H49.8346V38.9997ZM32.5008 4.70857L53.0143 17.3324H11.9874L32.5008 4.70857ZM65.0017 49.8333C65.0017 50.4079 64.7734 50.959 64.3671 51.3654C63.9607 51.7717 63.4096 52 62.835 52H2.16672C1.59207 52 1.04096 51.7717 0.634618 51.3654C0.228279 50.959 0 50.4079 0 49.8333C0 49.2586 0.228279 48.7075 0.634618 48.3012C1.04096 47.8948 1.59207 47.6666 2.16672 47.6666H62.835C63.4096 47.6666 63.9607 47.8948 64.3671 48.3012C64.7734 48.7075 65.0017 49.2586 65.0017 49.8333Z" fill="white"/>
</svg>
