<svg width="48" height="48" viewBox="0 0 48 48" fill="none" xmlns="http://www.w3.org/2000/svg">
<path d="M45.6523 13.6473C48.2116 19.0001 48.6975 25.1113 47.0161 30.8013C45.3347 36.4913 41.6052 41.3568 36.5474 44.4588C31.4896 47.5607 25.462 48.6792 19.628 47.5984C13.7941 46.5175 8.56725 43.314 4.95635 38.6061C1.34545 33.8981 -0.393544 28.0195 0.0749878 22.1048C0.543519 16.19 3.18637 10.6585 7.49346 6.5778C11.8005 2.49707 17.4666 0.156405 23.3979 0.00755998C29.3293 -0.141285 35.1056 1.91224 39.6119 5.7718L44.8384 0.542992C45.1845 0.196912 45.6539 0.00248589 46.1433 0.00248589C46.6328 0.00248589 47.1022 0.196912 47.4482 0.542992C47.7943 0.889072 47.9887 1.35846 47.9887 1.84789C47.9887 2.33732 47.7943 2.80671 47.4482 3.15279L25.3157 25.2853C24.9696 25.6314 24.5002 25.8258 24.0108 25.8258C23.5214 25.8258 23.052 25.6314 22.7059 25.2853C22.3598 24.9392 22.1654 24.4699 22.1654 23.9804C22.1654 23.491 22.3598 23.0216 22.7059 22.6755L29.0967 16.2848C27.3647 15.1393 25.2968 14.6119 23.2278 14.7879C21.1588 14.964 19.2097 15.8331 17.6961 17.2547C16.1826 18.6763 15.1931 20.5671 14.8879 22.6211C14.5826 24.675 14.9795 26.7719 16.0143 28.5722C17.0491 30.3724 18.6612 31.7708 20.5896 32.5409C22.518 33.311 24.6499 33.4077 26.6401 32.8154C28.6304 32.223 30.3624 30.9763 31.5559 29.2771C32.7495 27.5779 33.3346 25.5256 33.2166 23.4525C33.2029 23.2103 33.2371 22.9677 33.3172 22.7388C33.3974 22.5098 33.5218 22.2988 33.6834 22.1179C33.845 21.937 34.0407 21.7897 34.2593 21.6844C34.4778 21.5792 34.715 21.518 34.9572 21.5043C35.4463 21.4768 35.9264 21.6448 36.2917 21.9712C36.4726 22.1328 36.6199 22.3285 36.7252 22.5471C36.8305 22.7656 36.8917 23.0028 36.9053 23.245C37.0735 26.1793 36.2353 29.0832 34.5295 31.4767C32.8236 33.8702 30.3522 35.61 27.5236 36.4086C24.695 37.2071 21.6785 37.0166 18.9729 35.8686C16.2672 34.7205 14.0342 32.6837 12.643 30.0946C11.2518 27.5055 10.7857 24.5192 11.3216 21.6294C11.8576 18.7395 13.3635 16.1189 15.5906 14.2009C17.8177 12.2829 20.6325 11.1821 23.57 11.0806C26.5074 10.9791 29.3915 11.8829 31.7457 13.6427L36.9906 8.39774C33.1469 5.20649 28.2597 3.54786 23.2676 3.74039C18.2756 3.93293 13.5306 5.96307 9.94416 9.44088C6.3577 12.9187 4.1826 17.599 3.83663 22.5828C3.49067 27.5665 4.99822 32.5025 8.06975 36.4425C11.1413 40.3825 15.5602 43.0487 20.4778 43.9292C25.3954 44.8096 30.4649 43.8422 34.7126 41.2126C38.9604 38.5831 42.0869 34.4769 43.4916 29.6826C44.8963 24.8884 44.4802 19.7442 42.3232 15.2381C42.1122 14.7966 42.0853 14.2894 42.2483 13.8281C42.4113 13.3668 42.7509 12.9891 43.1923 12.7781C43.6338 12.5672 44.141 12.5402 44.6023 12.7032C45.0636 12.8662 45.4413 13.2058 45.6523 13.6473Z" fill="white"/>
</svg>
