<svg width="60" height="40" viewBox="0 0 60 40" fill="none" xmlns="http://www.w3.org/2000/svg">
<path d="M59.8275 19.19C59.74 18.9925 57.6225 14.295 52.915 9.5875C46.6425 3.315 38.72 0 30 0C21.28 0 13.3575 3.315 7.08498 9.5875C2.37748 14.295 0.249976 19 0.172476 19.19C0.058759 19.4458 0 19.7226 0 20.0025C0 20.2824 0.058759 20.5592 0.172476 20.815C0.259976 21.0125 2.37748 25.7075 7.08498 30.415C13.3575 36.685 21.28 40 30 40C38.72 40 46.6425 36.685 52.915 30.415C57.6225 25.7075 59.74 21.0125 59.8275 20.815C59.9412 20.5592 60 20.2824 60 20.0025C60 19.7226 59.9412 19.4458 59.8275 19.19ZM30 36C22.305 36 15.5825 33.2025 10.0175 27.6875C7.73409 25.4167 5.79145 22.8274 4.24998 20C5.79103 17.1723 7.73372 14.5829 10.0175 12.3125C15.5825 6.7975 22.305 4 30 4C37.695 4 44.4175 6.7975 49.9825 12.3125C52.2703 14.5824 54.2172 17.1718 55.7625 20C53.96 23.365 46.1075 36 30 36ZM30 8C27.6266 8 25.3065 8.70379 23.3331 10.0224C21.3597 11.3409 19.8217 13.2151 18.9134 15.4078C18.0052 17.6005 17.7675 20.0133 18.2306 22.3411C18.6936 24.6689 19.8365 26.8071 21.5147 28.4853C23.1929 30.1635 25.3311 31.3064 27.6589 31.7694C29.9867 32.2324 32.3995 31.9948 34.5922 31.0866C36.7849 30.1783 38.659 28.6402 39.9776 26.6668C41.2962 24.6935 42 22.3734 42 20C41.9967 16.8184 40.7313 13.7681 38.4816 11.5184C36.2319 9.26865 33.1816 8.00331 30 8ZM30 28C28.4177 28 26.871 27.5308 25.5554 26.6518C24.2398 25.7727 23.2144 24.5233 22.6089 23.0615C22.0034 21.5997 21.845 19.9911 22.1537 18.4393C22.4624 16.8874 23.2243 15.462 24.3431 14.3431C25.4619 13.2243 26.8874 12.4624 28.4393 12.1537C29.9911 11.845 31.5996 12.0035 33.0614 12.609C34.5233 13.2145 35.7727 14.2398 36.6517 15.5554C37.5308 16.871 38 18.4177 38 20C38 22.1217 37.1571 24.1566 35.6568 25.6569C34.1565 27.1571 32.1217 28 30 28Z" fill="white"/>
</svg>
